# xmcd
#
# Track frame offsets:
#	150
#	12179
#	28700
#	41461
#	57967
#	71430
#	90078
#	105276
#	117754
#	131608
#	144512
#	157255
#
# Disc length: 2240 seconds
#
# Revision: 1
# Processed by: cddbd v1.5.1PL2 Copyright (c) Steve Scherf et al.
# Submitted via: audiograbber 1.83.01
#
DISCID=9108be0c
DTITLE=The Midwesterners - Pretty Little Town
DYEAR=2000
DGENRE=Country
TTITLE0=I'm gonna run Your Roadblock of Love
TTITLE1=If You Don't go You Won't Know
TTITLE2=You Can't Unring a Bell
TTITLE3=Somewhere Outta Denver
TTITLE4=Scene of the Crime
TTITLE5=The Heart of it All
TTITLE6=On The Outside
TTITLE7=Unsafe At Any Speed
TTITLE8=Guitar Problem
TTITLE9=Dark Tavren Blues
TTITLE10=The Winter of '96
TTITLE11=Your Ramblin' Boy is Lost
EXTD=Darlingtone Records, Madison, WI
EXTT0=
EXTT1=
EXTT2=
EXTT3=
EXTT4=
EXTT5=
EXTT6=
EXTT7=
EXTT8=
EXTT9=
EXTT10=
EXTT11=
PLAYORDER=
